<svg width="19" height="17" viewBox="0 0 19 17" fill="none" xmlns="http://www.w3.org/2000/svg">
<path d="M11.5834 16.8333C12.1359 16.8333 12.6658 16.6138 13.0566 16.2231C13.4473 15.8324 13.6667 15.3025 13.6667 14.75C13.6667 14.1974 13.4473 13.6675 13.0566 13.2768C12.6658 12.8861 12.1359 12.6666 11.5834 12.6666C11.0309 12.6666 10.501 12.8861 10.1103 13.2768C9.71957 13.6675 9.50008 14.1974 9.50008 14.75C9.50008 15.3025 9.71957 15.8324 10.1103 16.2231C10.501 16.6138 11.0309 16.8333 11.5834 16.8333ZM4.29174 16.8333C4.84428 16.8333 5.37418 16.6138 5.76488 16.2231C6.15558 15.8324 6.37508 15.3025 6.37508 14.75C6.37508 14.1974 6.15558 13.6675 5.76488 13.2768C5.37418 12.8861 4.84428 12.6666 4.29174 12.6666C3.73921 12.6666 3.20931 12.8861 2.81861 13.2768C2.4279 13.6675 2.20841 14.1974 2.20841 14.75C2.20841 15.3025 2.4279 15.8324 2.81861 16.2231C3.20931 16.6138 3.73921 16.8333 4.29174 16.8333ZM17.873 2.16975C18.133 2.16136 18.3796 2.05217 18.5606 1.86525C18.7416 1.67834 18.8428 1.42836 18.8428 1.16819C18.8428 0.908013 18.7416 0.658037 18.5606 0.471123C18.3796 0.28421 18.133 0.175013 17.873 0.166626H16.674C15.7345 0.166626 14.922 0.818709 14.7178 1.73538L13.4126 7.61246C13.2084 8.52912 12.3959 9.18121 11.4563 9.18121H3.63133L2.12924 3.17079H11.8636C12.1212 3.15904 12.3644 3.04844 12.5425 2.86199C12.7206 2.67555 12.82 2.42761 12.82 2.16975C12.82 1.91189 12.7206 1.66395 12.5425 1.47751C12.3644 1.29106 12.1212 1.18046 11.8636 1.16871H2.12924C1.82473 1.16862 1.5242 1.23796 1.25051 1.37145C0.976816 1.50495 0.737162 1.69909 0.549763 1.93911C0.362364 2.17913 0.232155 2.45872 0.169035 2.75662C0.105913 3.05452 0.111544 3.36289 0.185495 3.65829L1.68758 9.66662C1.79586 10.1002 2.046 10.485 2.39821 10.7601C2.75042 11.0351 3.18447 11.1844 3.63133 11.1843H11.4563C12.368 11.1845 13.2524 10.8736 13.9636 10.3032C14.6748 9.73275 15.1701 8.93681 15.3678 8.04683L16.674 2.16975H17.873Z" fill="white"/>
</svg>
