<svg width="17" height="16" viewBox="0 0 17 16" fill="none" xmlns="http://www.w3.org/2000/svg">
<path d="M2.7515 1.99141C1.59282 3.14838 0.918906 4.70363 0.867092 6.34023C0.815278 7.97682 1.38946 9.57159 2.47264 10.7995C3.55581 12.0275 5.06645 12.7962 6.69672 12.9491C8.29727 13.0991 9.89485 12.6444 11.1757 11.6766L14.5069 15.0085L14.5069 15.0085C14.5897 15.0914 14.6881 15.1571 14.7963 15.2019C14.9046 15.2468 15.0206 15.2698 15.1377 15.2698C15.2549 15.2698 15.3709 15.2468 15.4791 15.2019C15.5873 15.1571 15.6857 15.0914 15.7685 15.0085C15.8514 14.9257 15.9171 14.8274 15.9619 14.7191C16.0068 14.6109 16.0298 14.4949 16.0298 14.3777C16.0298 14.2606 16.0068 14.1446 15.9619 14.0363C15.9171 13.9281 15.8514 13.8298 15.7685 13.7469L15.7685 13.7469L12.4368 10.416C13.4021 9.13496 13.8547 7.53846 13.7038 5.93943C13.5501 4.31054 12.7816 2.80139 11.5547 1.719C10.3277 0.636623 8.73451 0.0623154 7.09916 0.11292C5.46381 0.163525 3.90917 0.835233 2.7515 1.99141ZM2.7515 1.99141L2.82216 2.06217L2.7515 1.99141ZM10.5895 3.25366C11.0271 3.68416 11.3751 4.19703 11.6135 4.76269C11.8518 5.32835 11.9758 5.93561 11.9783 6.54944C11.9808 7.16327 11.8618 7.77152 11.628 8.3391C11.3943 8.90669 11.0505 9.42238 10.6164 9.85642C10.1824 10.2905 9.66668 10.6343 9.09909 10.868C8.53151 11.1018 7.92326 11.2208 7.30943 11.2183C6.6956 11.2158 6.08834 11.0918 5.52268 10.8535C4.95702 10.6151 4.44415 10.2671 4.01365 9.82954C3.15334 8.95509 2.67341 7.77613 2.6784 6.54944C2.6834 5.32275 3.17291 4.14773 4.04032 3.28033C4.90772 2.41292 6.08274 1.92341 7.30943 1.91841C8.53612 1.91342 9.71508 2.39335 10.5895 3.25366Z" fill="white" stroke="white" stroke-width="0.2"/>
</svg>
